<svg id="b" width="185" height="29" version="1.1" viewBox="-1348 -352 1802 76.6" xmlns="http://www.w3.org/2000/svg">
 <defs>
  <filter id="a" x="0" y="0" width="1" height="1" color-interpolation-filters="sRGB">
   <feColorMatrix values="0.21 0.72 0.11 0.17 0 0.21 0.72 0.11 0.17 0 0.21 0.72 0.11 0.17 0 0 0 0 1 0 "/>
  </filter>
 </defs>
 <style type="text/css">.st4{fill:#5f6368}</style>
 <g transform="matrix(.201 0 0 .201 -1348 -455)" filter="url(#a)">
  <path d="m1057 369h50.8l145-145 7.1-61.5c-270-238-681-212-919 57.3-66.1 74.8-114 164-140 260 16.1-6.6 34-7.7 50.8-3l290-47.8s14.7-24.4 22.4-22.9c129-142 346-158 494-37.6z" fill="#ea4335"/>
  <path d="m1459 480c-33.3-123-102-233-197-317l-203 203c85.8 70.1 135 176 133 287v36.1c99.9 0 181 81 181 181s-81 181-181 181h-362l-36.1 36.6v217l36.1 36.1h362c260 2 472-207 474-467 1.2-158-76.5-305-207-394z" fill="#4285f4"/>
  <path d="m468 1339h362v-290h-362c-25.8 0-51.2-5.6-74.7-16.3l-50.8 15.8-146 145-12.7 50.8c81.7 61.8 182 95 284 94.5z" fill="#34a853"/>
  <path d="m468 399c-260 1.5-469 213-468 473 0.9 145 68.6 282 184 370l210-210c-91-41.1-132-148-90.4-239s148-132 239-90.4c40.1 18.1 72.2 50.3 90.4 90.4l210-210c-89.2-117-228-185-375-184z" fill="#fbbc05"/>
  <path class="st4" d="m2629 1136c-126 1.6-247-48.1-335-138-91.3-85.8-142-206-141-331-1.5-125 49.5-245 141-331 88-90.5 209-141 335-140 120-1.6 236 45.1 322 130l-90.4 92c-61.9-59.9-145-92.7-231-91.5-90.3-1.1-177 35.8-239 102-64.2 63.7-99.6 151-98.1 241-0.8 89.4 34.6 175 98.1 238 131 130 342 133 476 5.6 39.9-43.6 64.3-99.2 69.6-158h-305v-130h431c4.2 26.2 5.9 52.7 5.1 79.3 5.4 111-34.8 219-111 300-85.1 88.5-204 137-327 132zm1e3 -86.4c-120 115-310 115-430 0-58.3-56.5-90.1-135-87.9-216-2.2-81.1 29.7-159 87.9-216 120-115 310-115 430 0 58.2 56.5 90.1 135 87.9 216 2.1 81.2-30 160-88.4 216zm-335-84.8c62.1 66.4 166 69.8 233 7.6 2.6-2.5 5.2-5 7.6-7.6 33.9-35.1 52.2-82.3 50.8-131 1.5-48.9-16.8-96.4-50.8-132-63.9-66.6-170-68.9-236-5-1.7 1.6-3.4 3.3-5 5-34 35.2-52.3 82.7-50.8 132-1.3 48.8 17.2 96.1 51.3 131zm997 84.8c-120 115-310 115-430 0-58.3-56.5-90.1-135-87.9-216-2.2-81.1 29.7-159 87.9-216 120-115 310-115 430 0 58.2 56.5 90.1 135 87.9 216 2.3 81.1-29.6 159-87.9 216zm-335-84.8c62.1 66.4 166 69.8 233 7.6 2.6-2.5 5.2-5 7.6-7.6 33.9-35.1 52.2-82.3 50.8-131 1.5-48.9-16.8-96.4-50.8-132-63.9-66.6-170-68.9-236-5-1.7 1.6-3.4 3.3-5 5-34 35.2-52.3 82.7-50.8 132-1.3 48.8 17.2 96.1 51.3 131zm770 442c-60.9 1.9-121-17.1-169-53.9a312 312 0 0 1-98.6-125l116-48.3c12.6 29.6 32.3 55.6 57.4 75.7 26.8 21.6 60.5 33 95 32 44.2 2.7 87.4-14 118-45.7 30.6-36.9 45.7-84.3 42.2-132v-43.7h-4.6c-39.3 46.6-98.2 72-159 68.6-77.1 0.2-151-31.8-203-88.4-56.8-56.1-88.2-133-86.9-213-1.4-80.3 30-158 86.9-214 52.3-56.8 126-89.1 203-88.9 32.3-0.1 64.3 7.1 93.5 20.8 25.3 11 47.8 27.5 66.1 48.3h4.6v-48.3h126v541c6.7 86.5-22.5 172-80.8 236-55.5 53.1-130 81.5-207 78.8zm9.2-390c43.9 1 86-17.7 115-50.8 31.3-35.9 47.9-82.4 46.2-130 1.9-48.5-14.6-95.8-46.2-133-28.8-33.2-70.9-51.8-115-50.8-45.1-0.9-88.4 17.6-119 50.8-33.6 35.5-51.9 82.8-50.8 132-1 48.4 17.2 95.2 50.8 130 30.3 33.5 73.6 52.4 119 51.8zm502-788v888h-133v-888zm364 906c-80.3 2.1-158-29.4-214-86.9-56.9-57-88-135-85.9-215-3-80.7 26.9-159 82.8-218 52.8-55.6 127-86.4 203-84.9 34.9-0.4 69.4 6.4 102 19.8 29 11.7 55.4 29 77.7 50.8 19.2 18.5 36.2 39.1 50.8 61.5 11.8 18.9 21.8 38.8 30 59.4l13.7 34.6-406 167c25.2 57.8 83.3 94.2 146 91.5 60.9 0.2 117-31.7 149-83.8l102 68.6a334 334 0 0 1-97.6 92.5c-45.6 28.8-98.8 43.6-153 42.6zm-170-312 270-112c-8.3-19.8-23.2-36.1-42.2-46.2-21.2-12-45.2-18.1-69.6-17.8-41.3 1.1-80.6 18.4-109 48.3-34.7 33.2-52.8 80.1-49.3 128z"/>
  <path class="st4" d="m6559 1136c-231 4-422-180-426-411-0.1-5.6-0.1-11.3 0.1-16.9-5.4-231 178-423 409-428 5.6-0.1 11.3-0.1 16.9-0.1 116-3.6 227 45.8 301 134l-73.2 71.1c-54.9-69.1-140-108-228-104-84.5-1.9-166 30.8-226 90.4-62.3 62.7-95.6 148-92 237-3.7 88.3 29.7 174 92 237 59.9 59.7 142 92.3 226 90.4 98.4 1.1 192-42.7 254-119l73.2 73.2c-38.3 45.8-86.4 82.4-141 107-58.6 27.2-122 40.8-187 39.8z"/>
  <path class="st4" d="m7083 1118h-105v-821h105z"/>
  <path class="st4" d="m7255 624c115-114 300-114 415 0 54.4 57.5 83.7 134 81.3 213 2.4 79.1-26.9 156-81.3 213-115 114-300 114-415 0-54.4-57.5-83.7-134-81.3-213-2.4-79.1 26.8-156 81.3-213zm78.2 361c67.3 71.1 180 74.2 251 6.9 2.4-2.2 4.7-4.6 6.9-6.9 37.1-39.8 56.7-92.9 54.4-147 2.4-54.4-17.2-108-54.4-147-67.3-71.1-180-74.2-251-6.9-2.4 2.2-4.7 4.6-6.9 6.9-37.1 39.8-56.7 92.9-54.4 147-2.1 54.3 17.7 107 54.9 147z"/>
  <path class="st4" d="m8333 1118h-102v-77.7h-3c-18.1 29.5-43.7 53.7-74.2 70.1-31.6 18.3-67.6 28-104 27.9-60.2 4.1-119-19.5-160-64-38.5-48.7-57.8-110-54.4-172v-346h105v326c0 105 46.2 157 139 157 41.7 1.3 81.4-17.6 107-50.8 27.3-34.5 41.8-77.4 41.2-121v-311h105v561z"/>
  <path class="st4" d="m8691 1136c-72.2 0.2-141-31.1-188-85.9-52.7-58.2-80.9-134-78.8-213-2.1-78.5 26.1-155 78.8-213 47.1-54.7 116-86.1 188-85.9 40-0.6 79.5 8.8 115 27.4 31.1 15.6 57.4 39.3 76.2 68.6h4.6l-4.6-77.7v-260h105v821h-102v-77.7h-4.6c-18.8 29.3-45.1 53-76.2 68.6-35 18.4-74.1 27.9-114 27.4zm17.3-96c48.1 0.7 94.2-19.3 126-54.9 35.7-40.7 54-93.8 50.8-148 3.2-54-15.1-107-50.8-148-63.8-70.2-172-75.3-243-11.4-4 3.6-7.8 7.5-11.4 11.4-35.8 40.4-54.1 93.4-50.8 147-3.3 53.9 15 107 50.8 147 32.4 36.4 78.9 56.8 128 56.1z"/>
 </g>
</svg>
