<?xml version="1.0" encoding="UTF-8" standalone="no"?>
<svg
   width="44"
   height="44"
   viewBox="0 0 44 44"
   fill="none"
   version="1.1"
   id="svg141"
   sodipodi:docname="logo.svg"
   inkscape:version="1.1.2 (0a00cf5339, 2022-02-04)"
   inkscape:export-filename="/home/tin/lab/nextly-template/public/favicon.ico"
   inkscape:export-xdpi="69.82"
   inkscape:export-ydpi="69.82"
   xmlns:inkscape="http://www.inkscape.org/namespaces/inkscape"
   xmlns:sodipodi="http://sodipodi.sourceforge.net/DTD/sodipodi-0.dtd"
   xmlns="http://www.w3.org/2000/svg"
   xmlns:svg="http://www.w3.org/2000/svg">
  <defs
     id="defs145" />
  <sodipodi:namedview
     id="namedview143"
     pagecolor="#ffffff"
     bordercolor="#666666"
     borderopacity="1.0"
     inkscape:pageshadow="2"
     inkscape:pageopacity="0.0"
     inkscape:pagecheckerboard="0"
     showgrid="false"
     inkscape:zoom="18.340909"
     inkscape:cx="19.846344"
     inkscape:cy="22.708798"
     inkscape:window-width="1920"
     inkscape:window-height="1016"
     inkscape:window-x="0"
     inkscape:window-y="0"
     inkscape:window-maximized="1"
     inkscape:current-layer="svg141" />
  <rect
     width="44"
     height="44"
     rx="6"
     fill="#4F46E5"
     id="rect137" />
  <g
     aria-label="K"
     id="text7868"
     style="font-size:48px;line-height:1.25;fill:#000000">
    <path
       d="m 31.24,7.143999 q -2.352,3.504 -5.184,6.96 -2.784,3.456 -6.048,6.912 1.536,1.296 3.264,3.024 1.728,1.728 3.36,3.792 1.68,2.016 3.12,4.32 1.488,2.304 2.496,4.704 h -4.464 q -1.2,-2.208 -2.592,-4.32 -1.392,-2.112 -2.976,-3.936 -1.536,-1.824 -3.216,-3.312 -1.632,-1.536 -3.312,-2.64 v 14.208 h -3.936 v -29.712 h 3.936 v 13.248 q 3.12,-3.216 5.952,-6.72 2.88,-3.504 5.04,-6.528 z"
       style="font-family:'Ubuntu Mono';-inkscape-font-specification:'Ubuntu Mono';fill:#ffffff"
       id="path39098" />
  </g>
</svg>
