<svg width="163" height="30" version="1.1" viewBox="-150 -46.1 176 10.4" xmlns="http://www.w3.org/2000/svg">
 <path d="m24-31.1v-0.493h0.3c0.159 0 0.405 0.0176 0.405 0.211 0 0.212-0.123 0.264-0.317 0.264h-0.388m0 0.352h0.212l0.493 0.846h0.529l-0.546-0.881c0.264-0.0176 0.511-0.141 0.511-0.529 0-0.476-0.317-0.617-0.864-0.617h-0.775v2.03h0.458l-0.0176-0.846m2.27-0.159c0-1.2-0.916-1.89-1.96-1.89-1.02 0-1.96 0.687-1.96 1.89s0.916 1.89 1.96 1.89 1.96-0.687 1.96-1.89m-0.564 0c0 0.864-0.634 1.45-1.39 1.45-0.775 0-1.39-0.582-1.39-1.45s0.634-1.45 1.39-1.45c0.758 0.0176 1.39 0.599 1.39 1.45zm-71.1-20.1v21.3h6.03v-21.3zm-47.4-0.0353v21.4h6.08v-16.6l4.74 0.0176c1.55 0 2.64 0.388 3.38 1.18 0.952 1 1.34 2.66 1.34 5.64v9.75h5.89v-11.8c0-8.42-5.38-9.57-10.6-9.57zm57.1 0.0353v21.3h9.76c5.2 0 6.91-0.864 8.74-2.8 1.3-1.36 2.13-4.35 2.13-7.63 0-3-0.705-5.68-1.96-7.35-2.2-2.98-5.43-3.56-10.2-3.56zm5.97 4.64h2.59c3.75 0 6.19 1.67 6.19 6.06 0 4.37-2.41 6.06-6.19 6.06h-2.59zm-24.4-4.64-5.02 16.9-4.81-16.9h-6.5l6.87 21.3h8.67l6.93-21.3zm41.8 21.3h6.03v-21.3h-6.03zm16.9-21.3-8.41 21.3h5.94l1.34-3.75h9.96l1.27 3.75h6.45l-8.5-21.3zm3.91 3.9 3.65 9.98h-7.42zm-140-0.352v-2.93c0.282-0.0176 0.582-0.0353 0.864-0.0353 8.04-0.247 13.3 6.89 13.3 6.89s-5.68 7.9-11.8 7.9c-0.881 0-1.66-0.141-2.36-0.388v-8.9c3.12 0.388 3.75 1.76 5.64 4.88l4.18-3.52s-3.05-4-8.2-4c-0.564 0.0176-1.11 0.0529-1.64 0.106m0-9.69v4.37c0.282-0.0176 0.582-0.0352 0.864-0.0529 11.2-0.388 18.4 9.15 18.4 9.15s-8.35 10.2-17 10.2c-0.793 0-1.53-0.0705-2.24-0.194v2.71c0.599 0.0705 1.23 0.123 1.87 0.123 8.11 0 14-4.14 19.6-9.02 0.934 0.758 4.79 2.59 5.59 3.38-5.39 4.51-18 8.16-25.1 8.16-0.687 0-1.34-0.0353-1.99-0.106v3.81h30.8v-32.5zm0 21.1v2.31c-7.49-1.34-9.57-9.13-9.57-9.13s3.6-3.98 9.57-4.64v2.54h-0.0176c-3.12-0.388-5.59 2.56-5.59 2.56s1.39 4.92 5.6 6.36m-13.3-7.16s4.44-6.54 13.3-7.23v-2.38c-9.82 0.793-18.3 9.11-18.3 9.11s4.81 13.9 18.3 15.2v-2.54c-9.91-1.25-13.3-12.2-13.3-12.2z" fill="#808080" stroke-width=".176"/>
</svg>
