<?xml version="1.0" encoding="UTF-8" standalone="no"?>
<svg
   height="35"
   width="142.23138"
   viewBox="-150 -46.1 154.08399 12.10125"
   version="1.1"
   id="svg39357"
   sodipodi:docname="openai_logo.svg"
   inkscape:version="1.1.2 (0a00cf5339, 2022-02-04)"
   xmlns:inkscape="http://www.inkscape.org/namespaces/inkscape"
   xmlns:sodipodi="http://sodipodi.sourceforge.net/DTD/sodipodi-0.dtd"
   xmlns="http://www.w3.org/2000/svg"
   xmlns:svg="http://www.w3.org/2000/svg">
  <defs
     id="defs39361" />
  <sodipodi:namedview
     id="namedview39359"
     pagecolor="#ffffff"
     bordercolor="#666666"
     borderopacity="1.0"
     inkscape:pageshadow="2"
     inkscape:pageopacity="0.0"
     inkscape:pagecheckerboard="0"
     showgrid="false"
     fit-margin-top="0"
     fit-margin-left="0"
     fit-margin-right="0"
     fit-margin-bottom="0"
     inkscape:zoom="0.9775"
     inkscape:cx="-190.28133"
     inkscape:cy="-324.80818"
     inkscape:window-width="1920"
     inkscape:window-height="1016"
     inkscape:window-x="0"
     inkscape:window-y="0"
     inkscape:window-maximized="1"
     inkscape:current-layer="svg39357" />
  <g
     style="fill:#808080"
     id="g52322"
     transform="matrix(0.45497231,0,0,0.45497231,-149.99967,-57.164096)">
    <path
       d="m 200.154,32.427 v 0.028 c -0.169,0 -0.339,0.028 -0.508,0.028 -0.169,0 -0.339,-0.028 -0.508,-0.028 -10.075,0 -16.312,6.294 -16.312,16.397 v 4.967 c 0,9.736 6.322,15.776 16.453,15.776 a 4.38,4.38 0 0 0 0.621,-0.028 c 0.141,0 0.254,0.028 0.395,0.028 6.801,0 11.543,-2.483 14.562,-7.62 l -6.011,-3.472 c -2.004,2.963 -4.685,5.193 -8.523,5.193 -5.136,0 -8.212,-3.161 -8.212,-8.495 V 53.79 h 23.819 v -5.87 c 0,-9.426 -6.18,-15.494 -15.776,-15.494 z m -0.508,5.786 c 4.685,0.226 7.507,3.33 7.507,8.438 v 1.411 h -15.07 v -0.819 c 0,-5.644 2.681,-8.805 7.563,-9.031 z m -36.998,-5.758 c -4.487,0 -8.353,1.863 -10.385,4.967 l -0.508,0.79 v -4.911 h -8.523 v 47.667 h 8.946 v -16.65 l 0.508,0.762 c 1.919,2.85 5.673,4.543 10.047,4.543 h 0.226 0.197 c 7.366,0 14.788,-4.798 14.788,-15.55 v -6.039 c 0,-7.733 -4.572,-15.55 -14.845,-15.55 l -0.056,-0.028 h -0.197 z m -2.088,6.717 c 5.193,0.085 8.41,3.612 8.41,9.257 v 5.192 c 0,5.644 -3.246,9.144 -8.495,9.257 -4.882,-0.085 -8.297,-3.81 -8.297,-9.116 v -5.334 c 0,-5.362 3.443,-9.144 8.382,-9.257 z m 115.934,-18.485 -17.215,48.09 h 9.68 l 3.302,-10.301 h 18.795 v 0.113 l 3.302,10.216 h 9.68 l -17.243,-48.09 h -1.016 l -0.028,-0.028 z m 5.137,8.269 7.196,22.719 h -14.45 z m 57.035,-1.496 v -6.773 h -29.52 v 6.773 h 10.357 v 34.487 h -10.357 v 6.773 h 29.52 V 61.947 H 328.309 V 27.46 Z m -97.139,4.996 h -0.254 -0.141 c -4.995,0 -8.551,1.693 -10.301,4.939 l -0.536,0.988 v -5.08 h -8.523 v 35.446 h 8.946 v -21.11 c 0,-4.967 2.681,-7.817 7.309,-7.902 4.431,0.085 6.971,2.879 6.971,7.705 v 21.307 h 8.946 V 45.917 c 0,-8.438 -4.628,-13.462 -12.389,-13.462 z M 114.473,19.699 c -13.18,0 -21.392,8.213 -21.392,21.449 v 7.14 c 0,13.236 8.184,21.448 21.392,21.448 h 0.198 0.197 c 13.18,0 21.392,-8.212 21.392,-21.448 v -7.14 c 0,-13.236 -8.212,-21.449 -21.392,-21.449 h -0.197 z m 0.198,7.169 c 7.846,0.085 12.361,5.108 12.361,13.8 v 8.128 c 0,8.692 -4.515,13.716 -12.361,13.8 -7.846,-0.085 -12.362,-5.108 -12.362,-13.8 v -8.128 c 0,-8.692 4.516,-13.716 12.362,-13.8 z M 36.751,0.001 c -9.116,0 -17.215,5.87 -20.038,14.534 A 20.83,20.83 0 0 0 2.828,24.61 C -1.744,32.512 -0.7,42.446 5.425,49.219 3.534,54.892 4.183,61.1 7.203,66.237 11.747,74.167 20.89,78.231 29.837,76.34 a 20.78,20.78 0 0 0 15.635,6.999 c 9.116,0 17.215,-5.87 20.038,-14.534 5.87,-1.214 10.922,-4.883 13.857,-10.075 4.6,-7.902 3.556,-17.836 -2.568,-24.609 V 34.093 A 20.76,20.76 0 0 0 75.021,17.047 C 70.476,9.145 61.332,5.08 52.414,6.971 A 20.86,20.86 0 0 0 36.751,0.001 Z m 0,5.419 -0.028,0.028 c 3.669,0 7.197,1.27 10.019,3.613 -0.113,0.056 -0.339,0.197 -0.508,0.282 L 29.64,18.91 c -0.847,0.48 -1.355,1.383 -1.355,2.371 v 22.464 l -7.14,-4.12 V 21.055 A 15.63,15.63 0 0 1 36.751,5.419 Z m 19.99,6.54 a 15.62,15.62 0 0 1 13.566,7.825 c 1.806,3.161 2.483,6.858 1.862,10.442 -0.113,-0.085 -0.338,-0.197 -0.48,-0.282 L 55.095,20.349 a 2.78,2.78 0 0 0 -2.737,0 L 32.913,31.581 V 23.34 l 16.058,-9.285 a 15.54,15.54 0 0 1 7.77,-2.096 z m -41.043,8.53 v 19.727 c 0,0.988 0.508,1.863 1.355,2.371 L 36.469,53.792 29.3,57.94 13.27,48.683 a 15.63,15.63 0 0 1 -5.7,-21.336 15.65,15.65 0 0 1 8.128,-6.858 z m 37.196,4.882 16.058,9.257 c 7.479,4.318 10.018,13.857 5.7,21.336 l 0.028,0.028 c -1.834,3.161 -4.713,5.588 -8.128,6.83 V 43.095 c 0,-0.988 -0.508,-1.891 -1.355,-2.37 L 45.753,29.492 Z m -11.797,6.802 8.185,4.741 v 9.454 l -8.185,4.741 -8.184,-4.741 v -9.454 z m 12.869,7.451 7.14,4.12 v 18.542 c 0,8.636 -6.999,15.635 -15.606,15.635 v -0.028 c -3.641,0 -7.197,-1.27 -9.991,-3.612 0.113,-0.056 0.367,-0.198 0.508,-0.283 l 16.594,-9.567 c 0.847,-0.48 1.383,-1.383 1.354,-2.371 z M 49.309,51.76 V 60 l -16.058,9.257 c -7.479,4.29 -17.018,1.75 -21.336,-5.701 h 0.028 C 10.109,60.423 9.459,56.698 10.08,53.114 c 0.113,0.085 0.339,0.197 0.48,0.282 l 16.594,9.596 a 2.78,2.78 0 0 0 2.737,0 z"
       id="path52313"
       style="fill:#808080" />
  </g>
</svg>
