<?xml version="1.0" encoding="UTF-8" standalone="no"?>
<svg
   width="107.90557pt"
   height="26.25pt"
   version="1.1"
   id="svg52597"
   sodipodi:docname="python_logo.svg"
   inkscape:version="1.1.2 (0a00cf5339, 2022-02-04)"
   xmlns:inkscape="http://www.inkscape.org/namespaces/inkscape"
   xmlns:sodipodi="http://sodipodi.sourceforge.net/DTD/sodipodi-0.dtd"
   xmlns="http://www.w3.org/2000/svg"
   xmlns:svg="http://www.w3.org/2000/svg"
   xmlns:rdf="http://www.w3.org/1999/02/22-rdf-syntax-ns#"
   xmlns:cc="http://creativecommons.org/ns#"
   xmlns:dc="http://purl.org/dc/elements/1.1/">
  <sodipodi:namedview
     id="namedview52599"
     pagecolor="#ffffff"
     bordercolor="#666666"
     borderopacity="1.0"
     inkscape:pageshadow="2"
     inkscape:pageopacity="0.0"
     inkscape:pagecheckerboard="0"
     inkscape:document-units="pt"
     showgrid="false"
     fit-margin-top="0"
     fit-margin-left="0"
     fit-margin-right="0"
     fit-margin-bottom="0"
     inkscape:zoom="2.7160495"
     inkscape:cx="82.472725"
     inkscape:cy="73.45227"
     inkscape:window-width="1920"
     inkscape:window-height="1016"
     inkscape:window-x="0"
     inkscape:window-y="0"
     inkscape:window-maximized="1"
     inkscape:current-layer="svg52597" />
  <title
     id="title52556">Python programming language logo</title>
  <metadata
     id="metadata52558">
    <rdf:RDF>
      <dc:format>image/svg+xml</dc:format>
      <dc:type
         rdf:resource="http://purl.org/dc/dcmitype/StillImage" />
      <dc:title />
      <cc:Work
         rdf:about="">
        <dc:title>Python programming language logo</dc:title>
      </cc:Work>
    </rdf:RDF>
  </metadata>
  <defs
     id="defs52575">
    <linearGradient
       id="vlpc"
       x1="151"
       x2="112"
       y1="192.39999"
       y2="137.3"
       gradientTransform="matrix(0.12244745,0,0,0.12364472,2.3287919,1.3955335)"
       gradientUnits="userSpaceOnUse">
      <stop
         style="stop-color:#ffd43b"
         offset="0"
         id="stop52560" />
      <stop
         style="stop-color:#ffe873"
         offset="1"
         id="stop52562" />
    </linearGradient>
    <linearGradient
       id="vlpb"
       x1="26.65"
       x2="135.7"
       y1="20.6"
       y2="114.4"
       gradientTransform="matrix(0.12244745,0,0,0.12364472,2.3287919,1.3955335)"
       gradientUnits="userSpaceOnUse">
      <stop
         style="stop-color:#5a9fd4"
         offset="0"
         id="stop52565" />
      <stop
         style="stop-color:#306998"
         offset="1"
         id="stop52567" />
    </linearGradient>
    <radialGradient
       id="vlpa"
       cx="61.52"
       cy="132.3"
       r="29.040001"
       gradientTransform="matrix(0,-0.05223027,0.2296356,8.2539336e-8,-12.622173,34.950435)"
       gradientUnits="userSpaceOnUse">
      <stop
         style="stop-color:#b8b8b8;stop-opacity:.498"
         offset="0"
         id="stop52570" />
      <stop
         style="stop-color:#7f7f7f;stop-opacity:0"
         offset="1"
         id="stop52572" />
    </radialGradient>
    <filter
       style="color-interpolation-filters:sRGB"
       inkscape:label="Greyscale"
       id="filter53114"
       x="0"
       y="0"
       width="1"
       height="1">
      <feColorMatrix
         values="0.21 0.72 0.21 -0.03 0 0.21 0.72 0.21 -0.03 0 0.21 0.72 0.21 -0.03 0 0 0 0 1 0 "
         id="feColorMatrix53112" />
    </filter>
  </defs>
  <g
     id="g53816"
     transform="scale(1.043915)">
    <g
       id="g53068"
       style="fill:#808080"
       transform="matrix(1.3333333,0,0,1.3333333,-7.4565381,-4.3466666)">
      <path
         d="m 44.559558,16.031541 c 0,-3.169484 -0.903826,-4.797763 -2.712347,-4.887013 -0.719229,-0.03396 -1.421697,0.08063 -2.10479,0.3459 -0.5453,0.195198 -0.912316,0.388349 -1.105402,0.583394 v 7.566708 c 1.15634,0.72576 2.183375,1.062953 3.078057,1.010056 1.894725,-0.12519 2.842958,-1.663544 2.842958,-4.619262 z m 2.229088,0.131547 c 0,1.610429 -0.377683,2.947446 -1.137183,4.009746 -0.846575,1.203141 -2.019894,1.822671 -3.519957,1.85663 -1.13087,0.03607 -2.29657,-0.318255 -3.493834,-1.060994 v 6.876649 l -1.93935,-0.691801 V 11.889291 c 0.318255,-0.390308 0.727719,-0.72576 1.224257,-1.010055 1.154163,-0.672645 2.557792,-1.0185455 4.207839,-1.0355249 l 0.02758,0.027581 c 1.508552,-0.019097 2.670987,0.6003729 3.487303,1.8566299 0.761678,1.152203 1.143714,2.629627 1.143714,4.43423 z"
         style="fill:#808080;stroke-width:0.217684"
         id="path52577" />
      <path
         d="m 58.643736,20.676926 c 0,2.160082 -0.216422,3.65492 -0.649353,4.488651 -0.434933,0.831772 -1.262569,1.495927 -2.483778,1.990288 -0.990899,0.390308 -2.062342,0.602551 -3.213021,0.638686 l -0.320432,-1.22208 c 1.169183,-0.159127 1.992465,-0.318254 2.470718,-0.477382 0.939961,-0.318254 1.58496,-0.806302 1.93935,-1.459791 0.284296,-0.532674 0.424267,-1.548824 0.424267,-3.054112 v -0.505027 c -1.326134,0.60255 -2.716701,0.901866 -4.168656,0.901866 -0.954764,0 -1.797202,-0.299098 -2.522962,-0.901866 -0.814792,-0.655666 -1.22208,-1.487437 -1.22208,-2.494663 V 10.50976 l 1.93935,-0.664155 v 8.12398 c 0,0.867908 0.28016,1.536199 0.840262,2.005091 0.560102,0.468892 1.285861,0.69376 2.174884,0.676781 0.889023,-0.0191 1.84161,-0.36288 2.853842,-1.035525 v -9.477977 h 1.93935 v 10.5381 z"
         style="fill:#808080;stroke-width:0.217684"
         id="path52579" />
      <path
         d="m 66.219152,21.924257 c -0.231181,0.0191 -0.443423,0.02758 -0.638686,0.02758 -1.096912,0 -1.951976,-0.261004 -2.562145,-0.78497 -0.608863,-0.524184 -0.914492,-1.247549 -0.914492,-2.170531 v -7.638544 h -1.32831 v -1.220121 h 1.32831 V 6.8985288 l 1.937173,-0.6896241 v 3.9292023 h 2.17902 v 1.220121 h -2.17902 v 7.5863 c 0,0.727719 0.195197,1.243413 0.585571,1.544688 0.335234,0.248161 0.867907,0.390308 1.593449,0.426444 v 1.010056 z"
         style="fill:#808080;stroke-width:0.217684"
         id="path52581" />
      <path
         d="m 77.952339,21.765347 h -1.93935 v -7.486165 c 0,-0.761677 -0.17824,-1.417343 -0.532674,-1.964819 -0.409464,-0.619529 -0.978056,-0.929294 -1.707952,-0.929294 -0.889022,0 -2.000954,0.468892 -3.334924,1.406676 v 8.972949 h -1.93935 V 3.87104 L 70.437439,3.26 v 8.150102 c 1.239059,-0.901866 2.592621,-1.353779 4.064167,-1.353779 1.027035,0 1.858589,0.345901 2.494663,1.035525 0.638686,0.689624 0.95694,1.548824 0.95694,2.575206 v 8.095681 z"
         style="fill:#808080;stroke-width:0.217684"
         id="path52583" />
      <path
         d="m 88.270577,15.726783 c 0,-1.217944 -0.231181,-2.222557 -0.691801,-3.019282 -0.547476,-0.969566 -1.398186,-1.480906 -2.549084,-1.534021 -2.126123,0.123057 -3.186899,1.646564 -3.186899,4.567017 0,1.338759 0.220732,2.457657 0.666332,3.354516 0.568592,1.143714 1.421697,1.707952 2.559968,1.689013 2.134613,-0.01698 3.202137,-1.701638 3.202137,-5.056807 z m 2.123947,0.01273 c 0,1.733421 -0.443423,3.176015 -1.32831,4.327566 -0.97392,1.289997 -2.318339,1.937173 -4.035868,1.937173 -1.701639,0 -3.02799,-0.647176 -3.985801,-1.937173 -0.867908,-1.152204 -1.300664,-2.594798 -1.300664,-4.327566 0,-1.629585 0.468892,-2.99969 1.406676,-4.116411 0.990899,-1.183985 2.294393,-1.7780456 3.903081,-1.7780456 1.610429,0 2.921324,0.5940606 3.931379,1.7780456 0.937785,1.116068 1.406677,2.485956 1.406677,4.116411 z"
         style="fill:#808080;stroke-width:0.217684"
         id="path52585" />
      <path
         d="m 101.50579,21.765347 h -1.939354 v -7.910649 c 0,-0.867908 -0.261003,-1.544688 -0.78301,-2.032737 -0.522007,-0.485871 -1.217944,-0.721406 -2.085634,-0.702249 -0.920805,0.01698 -1.797202,0.318254 -2.629627,0.901866 v 9.743552 h -1.93935 v -9.983005 c 1.116068,-0.812616 2.143102,-1.343112 3.080234,-1.591273 0.884886,-0.2311804 1.665503,-0.3459001 2.33793,-0.3459001 0.460402,0 0.893376,0.04456 1.300664,0.13368 0.761677,0.1761071 1.381207,0.5028511 1.858587,0.9824091 0.53268,0.530497 0.79781,1.167006 0.79781,1.911704 v 8.892407 z"
         style="fill:#808080;stroke-width:0.217684"
         id="path52587" />
      <path
         d="m 105.29349,8.4082351 h 0.34003 v -2.132436 h 0.80543 V 6.0215438 h -1.95089 v 0.2542553 h 0.80543 v 2.132436 m 1.44695,0 h 0.29039 V 6.4606132 l 0.63042,1.9474042 h 0.32348 l 0.65697,-1.9408737 v 1.9410914 h 0.31695 V 6.0224145 h -0.41926 l -0.71793,2.0447092 -0.61234,-2.0447092 h -0.46868 v 2.3858206"
         style="fill:#808080;stroke-width:0.217684"
         id="path52593" />
    </g>
    <path
       d="m 17.547106,3.9430935 c -0.997866,0.00464 -1.95067,0.089729 -2.788537,0.2381467 -2.470718,0.4364572 -2.919147,1.3496431 -2.919147,3.03452 v 2.2247342 h 5.836117 V 10.181927 H 11.839422 9.6495169 c -1.6961965,0 -3.1825453,1.019634 -3.646213,2.958331 -0.5359389,2.222557 -0.5596665,3.611383 0,5.931899 0.4149064,1.727978 1.4058056,2.95833 3.1020021,2.95833 h 2.006832 v -2.666633 c 0,-1.926507 1.666809,-3.626622 3.646213,-3.626622 h 5.829587 c 1.622837,0 2.919148,-1.336146 2.919148,-2.964861 V 7.2148895 c 0,-1.5816946 -1.334406,-2.7689451 -2.919148,-3.03452 -1.002654,-0.1668986 -2.042967,-0.2427181 -3.04105,-0.2381467 z m -3.156424,1.7891478 c 0.602986,0 1.09517,0.5004563 1.09517,1.1156323 0,0.6129992 -0.492402,1.1088842 -1.09517,1.1088842 -0.604945,-3e-7 -1.09517,-0.4956673 -1.09517,-1.1088842 0,-0.615176 0.490225,-1.1156323 1.09517,-1.1156323 z"
       style="fill:url(#vlpb);stroke-width:0.217684;filter:url(#filter53114)"
       id="path52589"
       transform="matrix(1.3333333,0,0,1.3333333,-7.4565381,-4.3466666)" />
    <path
       d="m 24.234369,10.180186 v 2.592621 c 0,2.009444 -1.703598,3.700634 -3.646213,3.700634 h -5.829587 c -1.596933,0 -2.919147,1.366622 -2.919147,2.964861 v 5.557481 c 0,1.581695 1.375547,2.512078 2.919147,2.964861 1.847487,0.543341 3.620091,0.641516 5.829587,0 1.469369,-0.425355 2.919147,-1.281725 2.919147,-2.964861 v -2.224734 h -5.829587 v -0.741433 h 5.829587 2.919148 c 1.696196,0 2.329222,-1.183114 2.919147,-2.95833 0.609298,-1.828331 0.583394,-3.587438 0,-5.931899 -0.41926,-1.688578 -1.219903,-2.95833 -2.919147,-2.95833 h -2.189905 z m -3.278326,14.075471 c 0.604944,0 1.09517,0.495667 1.09517,1.108884 -1e-6,0.615176 -0.490226,1.115632 -1.09517,1.115632 -0.602986,0 -1.09517,-0.500456 -1.09517,-1.115632 0,-0.612999 0.492402,-1.108884 1.09517,-1.108884 z"
       style="fill:url(#vlpc);stroke-width:0.217684;filter:url(#filter53114)"
       id="path52591"
       transform="matrix(1.3333333,0,0,1.3333333,-7.4565381,-4.3466666)" />
  </g>
</svg>
